<?xml version="1.0" encoding="UTF-8"?>
<svg id="Camada_1" data-name="Camada 1" xmlns="http://www.w3.org/2000/svg" viewBox="0 0 700 890.5">
  <path d="M400.89,73.28c.12-1.36.75-2.79,1.75-3.72,30.45-27.96,65.09-51.01,103.31-67.13l-28.29,44.38c-20.99,38.98-34.75,81.4-43.71,124.75l19.46,35.51c27.97,23.79,50.43,53.04,75.16,79.98,2.44.49,1.49-.55,2.08-1.55,3.27-5.55,6.44-12.83,9.33-18.77,16.56-34.03,32.92-68.29,48.86-102.61,17.09-36.8,34.19-73.91,49.05-111.6,22.05,14.18,43.27,30.13,62.09,48.43l-97.31,237.12,16.76,50.78c-.97,3.11-39.88,17.24-46.23,17.98-1.99,2.01,4.1,26.72,3.05,31.73-1.6,7.68-15.08,23.3-18.98,31.15l129.37,35.38c-26.78,76.42-49.61,156.78-102.55,219.87-14.41,17.17-31.09,33.56-48.82,47.06l26.89-38.45c40.47-65.97,71.53-137.98,92.91-212.41l-132.37-36.46c-4.82-1.81,2.89-8.46,5.01-11.57,11.49-16.86,23.16-34.52,28.86-54.16l-11.45-17.67c0-1.06,8.28-18.22,9.08-18.97,2.55-2.38,9.55.92,13.45,1.23,31.14,2.46,27.54-19.18,4.77-29.27l-.37-1.64c21.36-48.54,42.73-97.1,62.73-146.23,11.17-27.45,23.39-56.15,33.32-83.95,1.2-3.35,5.64-13.88,4.63-16.14-1.39-3.08-23.88-19.96-25.62-19.58l-1.74,1.99-115.04,244.73c-33.88-13.13-37.76,12.9-10.85,27.67l-4.38,8.96-33.51-43.51c-.48-2.74,21.28-20.76,25-23.62l.51-1.76c-20.69-27.7-43.96-53.78-69.93-76.27l-5.74,2.26c-3.64-18.6-13.84-34.77-23.02-50.98-1.06-5.16,13.75-51.32,16.57-59.89,6.03-18.26,13.22-36.03,19.86-54.03-23.49,19.74-42.86,44.16-61.68,68.4-.92-19.67-4.28-39.21-10.5-57.9-.45-1.35-.37-2.96-2.31-3.18-4.31,23.3-15.78,44.66-25.68,65.96-48.23-21.46-105.02-14.94-145.34,19.54-1.44-13.76-.36-27.1,0-40.91l10.38-56.81c-56.96,54.74-78.2,136.53-30.46,205.13,13.98,20.09,29.01,29.91,45.61,46.01,1.3,1.27,3.11,1.76,2.55,4.16-41.93-16.37-73.09-41.62-85.15-86.47-14.07-52.3,3.41-90.11,26.35-135.42.56-1.1,2.55-3.22.8-4.09-42.14,35.5-58.66,87.67-47.69,141.73.99,4.89,6.43,18.72,4.96,21.91l-33.68,29.9-36.57,44.03,65.75,60.03-27.65,54.58,36.38,44.2-103.88,38.04-3.66,44.96c-2.17,68.22,9.39,136.38,39.31,197.77l23.65,44.75c-37.98-36.54-64.54-85.78-76.74-137.03-11.09-46.57-12.14-99.39-5.55-146.8.62-4.44,2.28-19.8,4.73-22.14l84.27-27.52-28.11-28.68,30.41-61.12-69.32-54.71c21.39-32.21,46.4-61.55,74.11-88.43-.04-11.3-3.91-22.6-4.63-33.96C89.4,111.44,167.84,47.73,243.95,4.89l-10.78,39.3c-3.81,20.4-8.44,41.15-8.9,61.99-.03,1.5.12,1.57,1.34,2.49,34.39-13.06,73.98-12.85,109.33-3.62,5.09-15.1,12.63-29.57,18.36-44.57,7.58-19.85,13.3-40.38,20.14-60.48,4.23,22.3,9.88,45.75,20.91,65.81.95,1.73,4.36,9.02,6.54,7.47Z"/>
  <path d="M289.77,456.85c16.08-12.9,30.77-28.87,43.25-45.3,8.4-11.06,15.37-23.41,23.91-34.1-4.58,17.56-11.34,35.23-20.75,50.7.68,1.68,2.32.11,3.31-.36,5.89-2.76,12.46-8.55,18.67-8.21-30.2,27.59-63.7,51.73-97.62,74.62-1.84,1.24-3.53,4.09-5.01,4.77-2.25,1.03-19.61,1.16-22.55.6-4.7-.9-12.98-14.1-15.8-18.4-24.4-37.16-40.38-86.1-49.56-129.37,4.47,3.27,7.26,14.7,11.05,17.64,1.28,1,3.67,1.08,5.23,2.1,5.2,3.4,23.47,16.56,27.68,17.61s20.48-13.05,26.34-14.13l42.5,13.08,44.83-29.54,5.46-7.98,12.79-28.11c3.19,23.18-2.25,45.14-13.21,65.56l-40.51,68.81Z"/>
  <path d="M427.79,517.94c-8.3,11.54-18.26,22.06-28.06,32.39-52.71,55.55-114.25,112.31-172.25,162.45-16.78,14.5-34.31,28.53-51.95,41.84-12.14-9.28-24.56-18.13-34.77-29.64,18.51-15.79,39.21-29.2,58.5-44.08,64.99-50.13,127.74-103.41,189.46-157.46l39.07-5.5Z"/>
  <path d="M67.44,875.83c-.28-2.18,2.75-1.19,4.11-1.06,9.41.87,18.82,1.12,28.19,2.36,64.72.12,128.04-10.35,189.72-29.05,43.75-13.27,85.92-31.23,126.09-52.85l-16.46,23.22c-23.14,27.37-57.75,41.21-91.3,51.62-76.59,23.75-162.94,28.26-240.35,5.77Z"/>
  <path d="M387.48,858.73c33.11-26.61,61.3-56.71,89.14-88.58,20.27-23.21,38.71-42.46,59.92-64.68,16.2-16.97,31.65-34.75,47.6-51.95-41.78,86.29-106.59,166.8-196.66,205.21Z"/>
  <path d="M176.16,666.95c-3.65-15.79-7.76-31.41-10.62-47.41-6.05-33.91-8.41-70.19-6.54-104.72,1.03-19.06,6.51-37.33,11.65-55.54,1.92.02,2.77,33.67,3.07,37.26,4.33,51.87,10.59,103.94,24.19,154.17.07,3.77-20.74,17.18-21.75,16.25Z"/>
  <path d="M215.23,829.43l-34.62,15.54c-49.97-28.91-94.41-74.32-111.94-130.38,38.92,46.34,85.87,87.71,141.22,113.46,1.71.8,3.43,1.4,5.34,1.38Z"/>
  <path d="M167.61,216.21c1.82-1.9,9.7,10.09,11.11,11.47,17.58,17.29,39.77,28.11,64.66,23.38,40.06-7.62,79.38-40.01,101.11-73.57l22.21-43.13c-9.43,59.77-56.6,110.5-114.55,126.69-16.99,4.75-24.25,6.82-40.9.06-19.42-7.89-38.19-24.11-43.65-44.9Z"/>
  <path d="M255.55,603.42l152.68-131.91c-1.16,4.87-6.3,10.21-9.73,14.08-34.13,38.49-79.18,71.05-119.36,102.96l-23.59,14.87Z"/>
  <path d="M425.36,339.58c-.63-2.5.74-3.3,1.79-4.92,7.66-11.97,22.41-26.48,32.35-37.32.92-1.01,2.35-1.63,3.72-1.75l-.04-1.75c-5.72-6.13-10.43-13.23-15.87-19.57-3.92-4.57-15.75-14.9-17.65-19-.57-1.22-.96-2.21-.59-3.58l6.68-3.52c14.23,14.48,30.29,27.76,40.78,45.43l-51.16,45.98Z"/>
  <path d="M141.94,294.38c-4.85-1.49-13.16-15.69-17.48-14.55l-30.06,33.65,20.67,28.54-30.44-27.65c10.89-16.38,26.07-29.12,39.62-43.17,2.72,1.62,19.08,21.7,17.7,23.19Z"/>
  <path d="M267.76,318.83l-19.1,10.81c-5.33,1.12-14.24,7.62-19.25,7.46-8.02-.26-29.9-15.7-36.16-21.93l36.24,15.6,38.27-11.93Z"/>
  <path d="M326.42,158.78c.7-3.22-8.57-5.01-10.2-3.77l-15.47,22.1c3.14-10.36,2.38-21.94,7.55-31.54l22.97,5.3c2.81,1.99-4.25,8.3-4.85,7.91Z"/>
  <path d="M409.48,238.19c-1.6-10.26-10.68-22.66-12.67-32.05-.59-2.77.13-4.4.45-7.04,8.66,10.57,11.87,24.9,17.05,37.27l-4.83,1.81Z"/>
  <path d="M531.61,414.09c-2.2,2.55-14.2-15.38-15.16-17.19-1.96-3.72-3.41-5.04-1.93-9.67,2.35-.51,2.92,1.2,4.15,2.55,2.8,3.07,15.85,20.93,12.94,24.31Z"/>
  <path d="M477.89,346.91c1.24-1.02,15.88,19.19,16.56,21.93.4,1.62.03,3.74-1.3,3.69s-14.76-17.68-15.59-19.93c-.94-2.55-.15-3.32.34-5.7Z"/>
  <path d="M424.12,256.53l-36.63,30.53c-.53-2.29,1.27-2.91,2.43-4.28,6.03-7.16,17.41-15.78,25.27-21.15,2.66-1.82,5.77-4.54,8.94-5.1Z"/>
  <path d="M119.95,432.41c-5.27-3.55,1.72-14.94,4.89-18.32l-4.89,18.32Z"/>
</svg>